<?xml version="1.0" encoding="utf-8" ?>
<svg baseProfile="full" height="500" version="1.1" width="500" xmlns="http://www.w3.org/2000/svg" xmlns:ev="http://www.w3.org/2001/xml-events" xmlns:xlink="http://www.w3.org/1999/xlink"><defs /><rect fill="blue" fill-opacity="0" height="100%" width="100%" x="0" y="0" /><path d="M263.1197476470245,255.3905544871001 L250.0,250.0" fill="none" stroke="white" stroke-linecap="round" stroke-width="3" /><path d="M250.0,250.0 A0.0,0.0 0 0 0 250.0,250.0" fill="none" stroke="white" stroke-linecap="round" stroke-width="3" /><path d="M284.6296618359912,237.0838039220173 L250.0,250.0" fill="none" stroke="white" stroke-linecap="round" stroke-width="3" /><path d="M250.0,250.0 A0.0,0.0 0 0 0 250.0,250.0" fill="none" stroke="white" stroke-linecap="round" stroke-width="3" /><path d="M490.0,250.0 L264.184,250.0" fill="none" stroke="white" stroke-linecap="round" stroke-width="3" /><path d="M263.1197476470245,255.3905544871001 A14.183999999999996,14.183999999999996 0 0 0 264.184,250.0" fill="none" stroke="white" stroke-linecap="round" stroke-width="3" /><path d="M283.1273732024347,282.75127784845364 L260.08669632284335,259.972181972404" fill="none" stroke="white" stroke-linecap="round" stroke-width="3" /><path d="M263.1197476470245,255.3905544871001 A14.183999999999996,14.183999999999996 0 0 1 260.08669632284335,259.972181972404" fill="none" stroke="white" stroke-linecap="round" stroke-width="3" /><path d="M346.7483103779777,197.17142569587466 L282.43901545440576,232.2869574508267" fill="none" stroke="white" stroke-linecap="round" stroke-width="3" /><path d="M284.6296618359912,237.0838039220173 A36.96000000000003,36.96000000000003 0 0 0 282.43901545440576,232.2869574508267" fill="none" stroke="white" stroke-linecap="round" stroke-width="3" /><path d="M479.80149135163344,200.00974546408924 L286.11534816629404,242.14358689812198" fill="none" stroke="white" stroke-linecap="round" stroke-width="3" /><path d="M284.6296618359912,237.0838039220173 A36.96000000000003,36.96000000000003 0 0 1 286.11534816629404,242.14358689812198" fill="none" stroke="white" stroke-linecap="round" stroke-width="3" /><path d="M356.6916241737653,277.23141338902576 L295.1369752661897,261.5205260218176" fill="none" stroke="white" stroke-linecap="round" stroke-width="3" /><path d="M283.1273732024347,282.75127784845364 A46.583999999999975,46.583999999999975 0 0 0 295.1369752661897,261.5205260218176" fill="none" stroke="white" stroke-linecap="round" stroke-width="3" /><path d="M271.1622251768573,329.13113148163615 L262.0351242508878,295.0024981558323" fill="none" stroke="white" stroke-linecap="round" stroke-width="3" /><path d="M283.1273732024347,282.75127784845364 A46.583999999999975,46.583999999999975 0 0 1 262.0351242508878,295.0024981558323" fill="none" stroke="white" stroke-linecap="round" stroke-width="3" /><path d="M451.9008478794834,120.24620381065643 L342.73305943104674,190.40408141023448" fill="none" stroke="white" stroke-linecap="round" stroke-width="3" /><path d="M346.7483103779777,197.17142569587466 A110.232,110.232 0 0 0 342.73305943104674,190.40408141023448" fill="none" stroke="white" stroke-linecap="round" stroke-width="3" /><path d="M468.3116788850844,150.30039687954724 L350.27055411191924,204.20797228677606" fill="none" stroke="white" stroke-linecap="round" stroke-width="3" /><path d="M346.7483103779777,197.17142569587466 A110.232,110.232 0 0 1 350.27055411191924,204.20797228677606" fill="none" stroke="white" stroke-linecap="round" stroke-width="3" /><path d="M480.2783136674794,182.38418635805687 L475.64971956276304,183.74326421225993" fill="none" stroke="white" stroke-linecap="round" stroke-width="3" /><path d="M479.80149135163344,200.00974546408924 A235.17600000000002,235.17600000000002 0 0 0 475.64971956276304,183.74326421225993" fill="none" stroke="white" stroke-linecap="round" stroke-width="3" /><path d="M487.55714605142384,215.84443881441152 L482.7822474157902,216.53096559424185" fill="none" stroke="white" stroke-linecap="round" stroke-width="3" /><path d="M479.80149135163344,200.00974546408924 A235.17600000000002,235.17600000000002 0 0 1 482.7822474157902,216.53096559424185" fill="none" stroke="white" stroke-linecap="round" stroke-width="3" /><path d="M487.55714605142384,284.15556118558845 L358.9912186083933,265.670571471948" fill="none" stroke="white" stroke-linecap="round" stroke-width="3" /><path d="M356.6916241737653,277.23141338902576 A110.11199999999998,110.11199999999998 0 0 0 358.9912186083933,265.670571471948" fill="none" stroke="white" stroke-linecap="round" stroke-width="3" /><path d="M380.6707564473668,298.73767234360866 L353.16940811917374,288.4801997440159" fill="none" stroke="white" stroke-linecap="round" stroke-width="3" /><path d="M356.6916241737653,277.23141338902576 A110.11199999999998,110.11199999999998 0 0 1 353.16940811917374,288.4801997440159" fill="none" stroke="white" stroke-linecap="round" stroke-width="3" /><path d="M386.2202084684627,376.825506917215 L309.9509441009495,305.8163062680148" fill="none" stroke="white" stroke-linecap="round" stroke-width="3" /><path d="M271.1622251768573,329.13113148163615 A81.912,81.912 0 0 0 309.9509441009495,305.8163062680148" fill="none" stroke="white" stroke-linecap="round" stroke-width="3" /><path d="M223.3235734270735,336.70920750012226 L225.9135862715878,328.29061513172417" fill="none" stroke="white" stroke-linecap="round" stroke-width="3" /><path d="M271.1622251768573,329.13113148163615 A81.912,81.912 0 0 1 225.9135862715878,328.29061513172417" fill="none" stroke="white" stroke-linecap="round" stroke-width="3" /><path d="M480.2783136674794,317.61581364194313 L383.8147280721722,289.2915493073331" fill="none" stroke="white" stroke-linecap="round" stroke-width="3" /><path d="M380.6707564473668,298.73767234360866 A139.46400000000003,139.46400000000003 0 0 0 383.8147280721722,289.2915493073331" fill="none" stroke="white" stroke-linecap="round" stroke-width="3" /><path d="M468.3116788850844,349.69960312045276 L376.86091660012255,307.9354393732951" fill="none" stroke="white" stroke-linecap="round" stroke-width="3" /><path d="M380.6707564473668,298.73767234360866 A139.46400000000003,139.46400000000003 0 0 1 376.86091660012255,307.9354393732951" fill="none" stroke="white" stroke-linecap="round" stroke-width="3" /><path d="M436.9039646010923,389.9145553557372 L398.99673576084194,361.5375592910919" fill="none" stroke="white" stroke-linecap="round" stroke-width="3" /><path d="M386.2202084684627,376.825506917215 A186.12,186.12 0 0 0 398.99673576084194,361.5375592910919" fill="none" stroke="white" stroke-linecap="round" stroke-width="3" /><path d="M407.1665761468684,431.379897845022 L371.8826798018964,390.66011077881456" fill="none" stroke="white" stroke-linecap="round" stroke-width="3" /><path d="M386.2202084684627,376.825506917215 A186.12,186.12 0 0 1 371.8826798018964,390.66011077881456" fill="none" stroke="white" stroke-linecap="round" stroke-width="3" /><path d="M262.25252400442884,355.12840365724617 L260.5021634323676,340.1100602776396" fill="none" stroke="white" stroke-linecap="round" stroke-width="3" /><path d="M223.3235734270735,336.70920750012226 A90.71999999999998,90.71999999999998 0 0 0 260.5021634323676,340.1100602776396" fill="none" stroke="white" stroke-linecap="round" stroke-width="3" /><path d="M186.5499832155374,323.38015695030515 L190.66277500117056,318.6236994735659" fill="none" stroke="white" stroke-linecap="round" stroke-width="3" /><path d="M223.3235734270735,336.70920750012226 A90.71999999999998,90.71999999999998 0 0 1 190.66277500117056,318.6236994735659" fill="none" stroke="white" stroke-linecap="round" stroke-width="3" /><path d="M451.9008478794835,379.7537961893434 L446.4091448171615,376.22449293299326" fill="none" stroke="white" stroke-linecap="round" stroke-width="3" /><path d="M436.9039646010923,389.9145553557372 A233.47200000000004,233.47200000000004 0 0 0 446.4091448171615,376.22449293299326" fill="none" stroke="white" stroke-linecap="round" stroke-width="3" /><path d="M431.379897845022,407.1665761468684 L426.4463646236374,402.89164527567357" fill="none" stroke="white" stroke-linecap="round" stroke-width="3" /><path d="M436.9039646010923,389.9145553557372 A233.47200000000004,233.47200000000004 0 0 1 426.4463646236374,402.89164527567357" fill="none" stroke="white" stroke-linecap="round" stroke-width="3" /><path d="M287.7939536293963,370.70131510907015 L281.6264393748838,351.0043263056925" fill="none" stroke="white" stroke-linecap="round" stroke-width="3" /><path d="M262.25252400442884,355.12840365724617 A105.83999999999997,105.83999999999997 0 0 0 281.6264393748838,351.0043263056925" fill="none" stroke="white" stroke-linecap="round" stroke-width="3" /><path d="M235.46050375053088,453.28872057448655 L242.44946085019325,355.5703318103492" fill="none" stroke="white" stroke-linecap="round" stroke-width="3" /><path d="M262.25252400442884,355.12840365724617 A105.83999999999997,105.83999999999997 0 0 1 242.44946085019325,355.5703318103492" fill="none" stroke="white" stroke-linecap="round" stroke-width="3" /><path d="M194.2339040762943,399.514689316562 L216.09917886545068,340.8916189227769" fill="none" stroke="white" stroke-linecap="round" stroke-width="3" /><path d="M186.5499832155374,323.38015695030515 A97.00800000000001,97.00800000000001 0 0 0 216.09917886545068,340.8916189227769" fill="none" stroke="white" stroke-linecap="round" stroke-width="3" /><path d="M152.6891215170814,303.4003083219812 L164.9555522534147,296.668982970259" fill="none" stroke="white" stroke-linecap="round" stroke-width="3" /><path d="M186.5499832155374,323.38015695030515 A97.00800000000001,97.00800000000001 0 0 1 164.9555522534147,296.668982970259" fill="none" stroke="white" stroke-linecap="round" stroke-width="3" /><path d="M311.07289214095647,372.008095819659 L306.6146247287319,363.1016121318563" fill="none" stroke="white" stroke-linecap="round" stroke-width="3" /><path d="M287.7939536293963,370.70131510907015 A126.48000000000002,126.48000000000002 0 0 0 306.6146247287319,363.1016121318563" fill="none" stroke="white" stroke-linecap="round" stroke-width="3" /><path d="M284.15556118558845,487.55714605142384 L267.99998074480516,375.1926159691004" fill="none" stroke="white" stroke-linecap="round" stroke-width="3" /><path d="M287.7939536293963,370.70131510907015 A126.48000000000002,126.48000000000002 0 0 1 267.99998074480516,375.1926159691004" fill="none" stroke="white" stroke-linecap="round" stroke-width="3" /><path d="M250.00000000000003,490.0 L250.0,453.808" fill="none" stroke="white" stroke-linecap="round" stroke-width="3" /><path d="M235.46050375053088,453.28872057448655 A203.808,203.808 0 0 0 250.0,453.808" fill="none" stroke="white" stroke-linecap="round" stroke-width="3" /><path d="M215.84443881441155,487.55714605142384 L220.99509744119828,451.73352842686916" fill="none" stroke="white" stroke-linecap="round" stroke-width="3" /><path d="M235.46050375053088,453.28872057448655 A203.808,203.808 0 0 1 220.99509744119828,451.73352842686916" fill="none" stroke="white" stroke-linecap="round" stroke-width="3" /><path d="M182.38418635805687,480.2783136674794 L205.04224550947202,403.11205075750706" fill="none" stroke="white" stroke-linecap="round" stroke-width="3" /><path d="M194.2339040762943,399.514689316562 A159.57600000000002,159.57600000000002 0 0 0 205.04224550947202,403.11205075750706" fill="none" stroke="white" stroke-linecap="round" stroke-width="3" /><path d="M150.3003968795473,468.31167888508446 L183.709733885211,395.15543529069265" fill="none" stroke="white" stroke-linecap="round" stroke-width="3" /><path d="M194.2339040762943,399.514689316562 A159.57600000000002,159.57600000000002 0 0 1 183.709733885211,395.15543529069265" fill="none" stroke="white" stroke-linecap="round" stroke-width="3" /><path d="M120.24620381065657,451.9008478794834 L189.98886926242864,343.3791421442611" fill="none" stroke="white" stroke-linecap="round" stroke-width="3" /><path d="M152.6891215170814,303.4003083219812 A111.00000000000003,111.00000000000003 0 0 0 189.98886926242864,343.3791421442611" fill="none" stroke="white" stroke-linecap="round" stroke-width="3" /><path d="M122.12911903020361,250.53496168850344 L139.00097138038507,250.4643764657148" fill="none" stroke="white" stroke-linecap="round" stroke-width="3" /><path d="M152.6891215170814,303.4003083219812 A111.00000000000003,111.00000000000003 0 0 1 139.00097138038507,250.4643764657148" fill="none" stroke="white" stroke-linecap="round" stroke-width="3" /><path d="M379.75379618934346,451.9008478794834 L323.76503313364174,364.78063201948635" fill="none" stroke="white" stroke-linecap="round" stroke-width="3" /><path d="M311.07289214095647,372.008095819659 A136.43999999999997,136.43999999999997 0 0 0 323.76503313364174,364.78063201948635" fill="none" stroke="white" stroke-linecap="round" stroke-width="3" /><path d="M300.5828432118919,385.61785099536553 L297.68089266450096,377.8374204789675" fill="none" stroke="white" stroke-linecap="round" stroke-width="3" /><path d="M311.07289214095647,372.008095819659 A136.43999999999997,136.43999999999997 0 0 1 297.68089266450096,377.8374204789675" fill="none" stroke="white" stroke-linecap="round" stroke-width="3" /><path d="M119.71159004138167,309.50072314228623 L133.68353749002705,303.1199485425773" fill="none" stroke="white" stroke-linecap="round" stroke-width="3" /><path d="M122.12911903020361,250.53496168850344 A127.87200000000001,127.87200000000001 0 0 0 133.68353749002705,303.1199485425773" fill="none" stroke="white" stroke-linecap="round" stroke-width="3" /><path d="M118.64854459477999,191.33703128096482 L133.24315075091553,197.85513891641318" fill="none" stroke="white" stroke-linecap="round" stroke-width="3" /><path d="M122.12911903020361,250.53496168850344 A127.87200000000001,127.87200000000001 0 0 1 133.24315075091553,197.85513891641318" fill="none" stroke="white" stroke-linecap="round" stroke-width="3" /><path d="M349.69960312045276,468.3116788850844 L310.12883064194506,381.6637735355944" fill="none" stroke="white" stroke-linecap="round" stroke-width="3" /><path d="M300.5828432118919,385.61785099536553 A144.744,144.744 0 0 0 310.12883064194506,381.6637735355944" fill="none" stroke="white" stroke-linecap="round" stroke-width="3" /><path d="M317.6158136419431,480.2783136674794 L290.7790972074559,388.8808509728568" fill="none" stroke="white" stroke-linecap="round" stroke-width="3" /><path d="M300.5828432118919,385.61785099536553 A144.744,144.744 0 0 1 290.7790972074559,388.8808509728568" fill="none" stroke="white" stroke-linecap="round" stroke-width="3" /><path d="M131.39821407457418,338.78418484898907 L135.336876979922,335.83573872975325" fill="none" stroke="white" stroke-linecap="round" stroke-width="3" /><path d="M119.71159004138167,309.50072314228623 A143.23199999999997,143.23199999999997 0 0 0 135.336876979922,335.83573872975325" fill="none" stroke="white" stroke-linecap="round" stroke-width="3" /><path d="M88.27828509430924,285.18040568217594 L110.04130009321892,280.44615155325204" fill="none" stroke="white" stroke-linecap="round" stroke-width="3" /><path d="M119.71159004138167,309.50072314228623 A143.23199999999997,143.23199999999997 0 0 1 110.04130009321892,280.44615155325204" fill="none" stroke="white" stroke-linecap="round" stroke-width="3" /><path d="M10.0,250.00000000000003 L106.14399999999998,250.00000000000003" fill="none" stroke="white" stroke-linecap="round" stroke-width="3" /><path d="M118.64854459477999,191.33703128096482 A143.856,143.856 0 0 0 106.14399999999998,250.00000000000003" fill="none" stroke="white" stroke-linecap="round" stroke-width="3" /><path d="M146.2516077783862,134.24011137086308 L153.98828732802946,142.8725069564541" fill="none" stroke="white" stroke-linecap="round" stroke-width="3" /><path d="M118.64854459477999,191.33703128096482 A143.856,143.856 0 0 1 153.98828732802946,142.8725069564541" fill="none" stroke="white" stroke-linecap="round" stroke-width="3" /><path d="M129.86538630353033,370.1346136964697 L145.24071615365062,354.7592838463494" fill="none" stroke="white" stroke-linecap="round" stroke-width="3" /><path d="M131.39821407457418,338.78418484898907 A148.152,148.152 0 0 0 145.24071615365062,354.7592838463494" fill="none" stroke="white" stroke-linecap="round" stroke-width="3" /><path d="M101.55990785246922,331.0544226259898 L119.97010233763197,321.0016958805499" fill="none" stroke="white" stroke-linecap="round" stroke-width="3" /><path d="M131.39821407457418,338.78418484898907 A148.152,148.152 0 0 1 119.97010233763197,321.0016958805499" fill="none" stroke="white" stroke-linecap="round" stroke-width="3" /><path d="M19.721686332520648,317.6158136419432 L91.20007489490627,296.62786508748405" fill="none" stroke="white" stroke-linecap="round" stroke-width="3" /><path d="M88.27828509430924,285.18040568217594 A165.504,165.504 0 0 0 91.20007489490627,296.62786508748405" fill="none" stroke="white" stroke-linecap="round" stroke-width="3" /><path d="M12.442853948576158,284.15556118558845 L86.18059208293812,273.5536749935818" fill="none" stroke="white" stroke-linecap="round" stroke-width="3" /><path d="M88.27828509430924,285.18040568217594 A165.504,165.504 0 0 1 86.18059208293812,273.5536749935818" fill="none" stroke="white" stroke-linecap="round" stroke-width="3" /><path d="M36.28045117870283,191.36889982593556 L100.09080379948648,208.8744167395045" fill="none" stroke="white" stroke-linecap="round" stroke-width="3" /><path d="M146.2516077783862,134.24011137086308 A155.448,155.448 0 0 0 100.09080379948648,208.8744167395045" fill="none" stroke="white" stroke-linecap="round" stroke-width="3" /><path d="M223.4211698625482,83.629701603548 L225.4770537321545,96.49851528293166" fill="none" stroke="white" stroke-linecap="round" stroke-width="3" /><path d="M146.2516077783862,134.24011137086308 A155.448,155.448 0 0 1 225.4770537321545,96.49851528293166" fill="none" stroke="white" stroke-linecap="round" stroke-width="3" /><path d="M92.83342385313156,431.379897845022 L138.74178074563184,378.39882968449103" fill="none" stroke="white" stroke-linecap="round" stroke-width="3" /><path d="M129.86538630353033,370.1346136964697 A169.89600000000002,169.89600000000002 0 0 0 138.74178074563184,378.39882968449103" fill="none" stroke="white" stroke-linecap="round" stroke-width="3" /><path d="M68.62010215497804,407.16657614686847 L121.60117031550894,361.25821925436816" fill="none" stroke="white" stroke-linecap="round" stroke-width="3" /><path d="M129.86538630353033,370.1346136964697 A169.89600000000002,169.89600000000002 0 0 1 121.60117031550894,361.25821925436816" fill="none" stroke="white" stroke-linecap="round" stroke-width="3" /><path d="M48.09915212051649,379.75379618934335 L107.72047249932797,341.43750017463026" fill="none" stroke="white" stroke-linecap="round" stroke-width="3" /><path d="M101.55990785246922,331.0544226259898 A169.128,169.128 0 0 0 107.72047249932797,341.43750017463026" fill="none" stroke="white" stroke-linecap="round" stroke-width="3" /><path d="M31.688321114915624,349.6996031204528 L96.15575988968104,320.2583103189831" fill="none" stroke="white" stroke-linecap="round" stroke-width="3" /><path d="M101.55990785246922,331.0544226259898 A169.128,169.128 0 0 1 96.15575988968104,320.2583103189831" fill="none" stroke="white" stroke-linecap="round" stroke-width="3" /><path d="M12.442853948576158,215.84443881441152 L30.639731336115233,218.46075480122758" fill="none" stroke="white" stroke-linecap="round" stroke-width="3" /><path d="M36.28045117870283,191.36889982593556 A221.616,221.616 0 0 0 30.639731336115233,218.46075480122758" fill="none" stroke="white" stroke-linecap="round" stroke-width="3" /><path d="M41.55060435667346,163.6574332560589 L45.25351352297872,165.19122845297818" fill="none" stroke="white" stroke-linecap="round" stroke-width="3" /><path d="M36.28045117870283,191.36889982593556 A221.616,221.616 0 0 1 45.25351352297872,165.19122845297818" fill="none" stroke="white" stroke-linecap="round" stroke-width="3" /><path d="M144.38566325848285,64.53078288123007 L166.62963635157422,103.59339883349097" fill="none" stroke="white" stroke-linecap="round" stroke-width="3" /><path d="M223.4211698625482,83.629701603548 A168.48,168.48 0 0 0 166.62963635157422,103.59339883349097" fill="none" stroke="white" stroke-linecap="round" stroke-width="3" /><path d="M288.01007118553207,63.26931669254034 L283.6058815771329,84.90561752917299" fill="none" stroke="white" stroke-linecap="round" stroke-width="3" /><path d="M223.4211698625482,83.629701603548 A168.48,168.48 0 0 1 283.6058815771329,84.90561752917299" fill="none" stroke="white" stroke-linecap="round" stroke-width="3" /><path d="M19.72168633252062,182.38418635805684 L33.51535732120263,186.43437359520922" fill="none" stroke="white" stroke-linecap="round" stroke-width="3" /><path d="M41.55060435667346,163.6574332560589 A225.62400000000002,225.62400000000002 0 0 0 33.51535732120263,186.43437359520922" fill="none" stroke="white" stroke-linecap="round" stroke-width="3" /><path d="M50.352604885157234,140.98427449281525 L51.97455565787749,141.86992662027387" fill="none" stroke="white" stroke-linecap="round" stroke-width="3" /><path d="M41.55060435667346,163.6574332560589 A225.62400000000002,225.62400000000002 0 0 1 51.97455565787749,141.86992662027387" fill="none" stroke="white" stroke-linecap="round" stroke-width="3" /><path d="M112.19274672298769,78.99163084736063 L116.07803481668992,83.8129792509647" fill="none" stroke="white" stroke-linecap="round" stroke-width="3" /><path d="M144.38566325848285,64.53078288123007 A213.43200000000002,213.43200000000002 0 0 0 116.07803481668992,83.8129792509647" fill="none" stroke="white" stroke-linecap="round" stroke-width="3" /><path d="M169.72668008936864,34.778900368654774 L175.41316121980518,50.02494629385089" fill="none" stroke="white" stroke-linecap="round" stroke-width="3" /><path d="M144.38566325848285,64.53078288123007 A213.43200000000002,213.43200000000002 0 0 1 175.41316121980518,50.02494629385089" fill="none" stroke="white" stroke-linecap="round" stroke-width="3" /><path d="M215.84443881441155,12.442853948576158 L222.88048441864277,61.37962603516945" fill="none" stroke="white" stroke-linecap="round" stroke-width="3" /><path d="M288.01007118553207,63.26931669254034 A190.56,190.56 0 0 0 222.88048441864277,61.37962603516945" fill="none" stroke="white" stroke-linecap="round" stroke-width="3" /><path d="M353.1209825243461,79.68128177087084 L348.6958294652011,86.99004065341299" fill="none" stroke="white" stroke-linecap="round" stroke-width="3" /><path d="M288.01007118553207,63.26931669254034 A190.56,190.56 0 0 1 348.6958294652011,86.99004065341299" fill="none" stroke="white" stroke-linecap="round" stroke-width="3" /><path d="M31.68832111491554,150.30039687954735 L43.08419075271695,155.504716162435" fill="none" stroke="white" stroke-linecap="round" stroke-width="3" /><path d="M50.352604885157234,140.98427449281525 A227.472,227.472 0 0 0 43.08419075271695,155.504716162435" fill="none" stroke="white" stroke-linecap="round" stroke-width="3" /><path d="M48.09915212051652,120.2462038106566 L58.63837637982556,127.01935197174032" fill="none" stroke="white" stroke-linecap="round" stroke-width="3" /><path d="M50.352604885157234,140.98427449281525 A227.472,227.472 0 0 1 58.63837637982556,127.01935197174032" fill="none" stroke="white" stroke-linecap="round" stroke-width="3" /><path d="M84.35033701211461,84.35033701211464 L94.70238028868565,94.7023802886857" fill="none" stroke="white" stroke-linecap="round" stroke-width="3" /><path d="M112.19274672298769,78.99163084736063 A219.624,219.624 0 0 0 94.70238028868565,94.7023802886857" fill="none" stroke="white" stroke-linecap="round" stroke-width="3" /><path d="M120.24620381065662,48.09915212051652 L131.26230110713186,65.24053410548467" fill="none" stroke="white" stroke-linecap="round" stroke-width="3" /><path d="M112.19274672298769,78.99163084736063 A219.624,219.624 0 0 1 131.26230110713186,65.24053410548467" fill="none" stroke="white" stroke-linecap="round" stroke-width="3" /><path d="M150.30039687954726,31.688321114915567 L154.5775098534147,41.05389213908569" fill="none" stroke="white" stroke-linecap="round" stroke-width="3" /><path d="M169.72668008936864,34.778900368654774 A229.70399999999998,229.70399999999998 0 0 0 154.5775098534147,41.05389213908569" fill="none" stroke="white" stroke-linecap="round" stroke-width="3" /><path d="M182.38418635805687,19.72168633252062 L185.28490476329623,29.600625988855484" fill="none" stroke="white" stroke-linecap="round" stroke-width="3" /><path d="M169.72668008936864,34.778900368654774 A229.70399999999998,229.70399999999998 0 0 1 185.28490476329623,29.600625988855484" fill="none" stroke="white" stroke-linecap="round" stroke-width="3" /><path d="M311.6105987912987,53.236243244398224 L309.4949979714369,59.9927684734638" fill="none" stroke="white" stroke-linecap="round" stroke-width="3" /><path d="M353.1209825243461,79.68128177087084 A199.10399999999996,199.10399999999996 0 0 0 309.4949979714369,59.9927684734638" fill="none" stroke="white" stroke-linecap="round" stroke-width="3" /><path d="M400.71556776922534,99.28443223077434 L390.7877885613662,109.21221143863349" fill="none" stroke="white" stroke-linecap="round" stroke-width="3" /><path d="M353.1209825243461,79.68128177087084 A199.10399999999996,199.10399999999996 0 0 1 390.7877885613662,109.21221143863349" fill="none" stroke="white" stroke-linecap="round" stroke-width="3" /><path d="M68.62010215497799,92.83342385313159 L72.95508171347402,96.58970502304177" fill="none" stroke="white" stroke-linecap="round" stroke-width="3" /><path d="M84.35033701211461,84.35033701211464 A234.264,234.264 0 0 0 72.95508171347402,96.58970502304177" fill="none" stroke="white" stroke-linecap="round" stroke-width="3" /><path d="M92.83342385313153,68.62010215497804 L96.58970502304172,72.95508171347407" fill="none" stroke="white" stroke-linecap="round" stroke-width="3" /><path d="M84.35033701211461,84.35033701211464 A234.264,234.264 0 0 1 96.58970502304172,72.95508171347407" fill="none" stroke="white" stroke-linecap="round" stroke-width="3" /><path d="M273.18683460893186,34.33084030205421 L272.0400637447813,44.99737209946315" fill="none" stroke="white" stroke-linecap="round" stroke-width="3" /><path d="M311.6105987912987,53.236243244398224 A206.184,206.184 0 0 0 272.0400637447813,44.99737209946315" fill="none" stroke="white" stroke-linecap="round" stroke-width="3" /><path d="M351.9190065118343,63.34927536266923 L348.8134730778883,69.03663521506505" fill="none" stroke="white" stroke-linecap="round" stroke-width="3" /><path d="M311.6105987912987,53.236243244398224 A206.184,206.184 0 0 1 348.8134730778883,69.03663521506505" fill="none" stroke="white" stroke-linecap="round" stroke-width="3" /><path d="M407.16657614686835,68.6201021549779 L389.57963627603374,88.9165127238359" fill="none" stroke="white" stroke-linecap="round" stroke-width="3" /><path d="M400.71556776922534,99.28443223077434 A213.14400000000003,213.14400000000003 0 0 0 389.57963627603374,88.9165127238359" fill="none" stroke="white" stroke-linecap="round" stroke-width="3" /><path d="M431.3798978450219,92.83342385313145 L411.08348727616396,110.42036372396603" fill="none" stroke="white" stroke-linecap="round" stroke-width="3" /><path d="M400.71556776922534,99.28443223077434 A213.14400000000003,213.14400000000003 0 0 1 411.08348727616396,110.42036372396603" fill="none" stroke="white" stroke-linecap="round" stroke-width="3" /><path d="M249.99999999999994,10.0 L249.99999999999997,33.087999999999994" fill="none" stroke="white" stroke-linecap="round" stroke-width="3" /><path d="M273.18683460893186,34.33084030205421 A216.912,216.912 0 0 0 249.99999999999997,33.087999999999994" fill="none" stroke="white" stroke-linecap="round" stroke-width="3" /><path d="M297.3170334544926,32.48710763481989 L296.1079620875153,38.04511900846384" fill="none" stroke="white" stroke-linecap="round" stroke-width="3" /><path d="M273.18683460893186,34.33084030205421 A216.912,216.912 0 0 1 296.1079620875153,38.04511900846384" fill="none" stroke="white" stroke-linecap="round" stroke-width="3" /><path d="M349.6996031204528,31.688321114915624 L338.3438183250332,56.55402133992675" fill="none" stroke="white" stroke-linecap="round" stroke-width="3" /><path d="M351.9190065118343,63.34927536266923 A212.664,212.664 0 0 0 338.3438183250332,56.55402133992675" fill="none" stroke="white" stroke-linecap="round" stroke-width="3" /><path d="M379.75379618934346,48.09915212051658 L364.9748388033773,71.09565869398972" fill="none" stroke="white" stroke-linecap="round" stroke-width="3" /><path d="M351.9190065118343,63.34927536266923 A212.664,212.664 0 0 1 364.9748388033773,71.09565869398972" fill="none" stroke="white" stroke-linecap="round" stroke-width="3" /><path d="M284.15556118558834,12.44285394857613 L281.6792829996332,29.665747037304357" fill="none" stroke="white" stroke-linecap="round" stroke-width="3" /><path d="M297.3170334544926,32.48710763481989 A222.6,222.6 0 0 0 281.6792829996332,29.665747037304357" fill="none" stroke="white" stroke-linecap="round" stroke-width="3" /><path d="M317.61581364194325,19.721686332520648 L312.71366715290236,36.41686407341291" fill="none" stroke="white" stroke-linecap="round" stroke-width="3" /><path d="M297.3170334544926,32.48710763481989 A222.6,222.6 0 0 1 312.71366715290236,36.41686407341291" fill="none" stroke="white" stroke-linecap="round" stroke-width="3" /></svg>